<?xml version="1.0" standalone="no"?>
<!DOCTYPE svg PUBLIC "-//W3C//DTD SVG 20010904//EN"
 "http://www.w3.org/TR/2001/REC-SVG-20010904/DTD/svg10.dtd">
<svg version="1.0" xmlns="http://www.w3.org/2000/svg"
 width="512.000000pt" height="512.000000pt" viewBox="0 0 512.000000 512.000000"
 preserveAspectRatio="xMidYMid meet">

<g transform="translate(0.000000,512.000000) scale(0.100000,-0.100000)"
fill="#000000" stroke="none">
<path d="M1945 3550 c-7 -21 -53 -50 -80 -50 -11 0 -15 -11 -15 -45 0 -43 1
-45 29 -45 25 0 75 -46 346 -315 307 -306 318 -315 356 -315 38 0 48 9 359
320 l320 321 0 43 c0 33 -6 47 -25 64 -14 12 -25 26 -25 32 0 5 -20 10 -45 10
-27 0 -45 -5 -45 -11 0 -20 -520 -529 -540 -529 -20 0 -540 509 -540 528 0 7
-17 12 -44 12 -36 0 -46 -4 -51 -20z"/>
<path d="M2086 2715 c-10 -16 -26 -25 -41 -25 -22 0 -25 -4 -25 -35 0 -30 3
-35 23 -35 16 0 90 -68 262 -240 205 -205 244 -240 270 -240 25 0 64 35 272
242 266 266 270 271 218 331 -24 27 -85 39 -85 17 0 -17 -391 -400 -408 -400
-9 0 -108 92 -220 205 -217 216 -234 228 -266 180z"/>
<path d="M2183 1991 c-22 -19 -32 -71 -14 -71 5 0 89 -81 187 -180 136 -138
184 -180 203 -180 34 0 391 360 391 394 0 27 -29 56 -56 56 -11 0 -83 -64
-176 -157 l-158 -158 -158 158 c-99 99 -165 157 -177 157 -11 -1 -30 -9 -42
-19z"/>
</g>
</svg>
